HIERARCHY
ROOT Hips
{
	OFFSET 56.877701 -32.693596 43.373703
	CHANNELS 6 Xposition Yposition Zposition Zrotation Xrotation Yrotation
	JOINT Chest
	{
		OFFSET -0.779999 1.005800 5.403099
		CHANNELS 6 Xposition Yposition Zposition Zrotation Xrotation Yrotation
		JOINT Chest2
		{
			OFFSET 0.000000 0.000000 4.236801
			CHANNELS 6 Xposition Yposition Zposition Zrotation Xrotation Yrotation
			JOINT Neck
			{
				OFFSET 0.000000 0.000000 9.874401
				CHANNELS 6 Xposition Yposition Zposition Zrotation Xrotation Yrotation
				JOINT Head
				{
					OFFSET 0.000000 0.000002 2.173893
					CHANNELS 6 Xposition Yposition Zposition Zrotation Xrotation Yrotation
					End Site
					{
						OFFSET 0.000000 0.000000 6.508102
					}
				}
			}
			JOINT LeftCollar
			{
				OFFSET 2.681599 -0.377600 5.432499
				CHANNELS 6 Xposition Yposition Zposition Zrotation Xrotation Yrotation
				JOINT LeftShoulder
				{
					OFFSET 5.161499 0.000000 0.000000
					CHANNELS 6 Xposition Yposition Zposition Zrotation Xrotation Yrotation
					JOINT LeftElbow
					{
						OFFSET 0.000000 0.000000 -10.869099
						CHANNELS 6 Xposition Yposition Zposition Zrotation Xrotation Yrotation
						JOINT LeftWrist
						{
							OFFSET 0.000000 0.000000 -13.344799
							CHANNELS 6 Xposition Yposition Zposition Zrotation Xrotation Yrotation
							End Site
							{
								OFFSET 0.000000 0.000000 -2.173901
							}
						}
					}
				}
			}
			JOINT RightCollar
			{
				OFFSET -2.381901 -1.419600 6.136600
				CHANNELS 6 Xposition Yposition Zposition Zrotation Xrotation Yrotation
				JOINT RightShoulder
				{
					OFFSET -4.550499 0.000000 0.000000
					CHANNELS 6 Xposition Yposition Zposition Zrotation Xrotation Yrotation
					JOINT RightElbow
					{
						OFFSET 0.000000 0.000000 -11.106499
						CHANNELS 6 Xposition Yposition Zposition Zrotation Xrotation Yrotation
						JOINT RightWrist
						{
							OFFSET 0.000000 0.000000 -12.874298
							CHANNELS 6 Xposition Yposition Zposition Zrotation Xrotation Yrotation
							End Site
							{
								OFFSET 0.000000 0.000000 -2.173901
							}
						}
					}
				}
			}
		}
	}
	JOINT LeftHip
	{
		OFFSET 2.431900 0.469601 -2.489399
		CHANNELS 6 Xposition Yposition Zposition Zrotation Xrotation Yrotation
		JOINT LeftKnee
		{
			OFFSET 0.000000 -0.000004 -18.200201
			CHANNELS 6 Xposition Yposition Zposition Zrotation Xrotation Yrotation
			JOINT LeftAnkle
			{
				OFFSET 0.000000 0.000000 -16.279900
				CHANNELS 6 Xposition Yposition Zposition Zrotation Xrotation Yrotation
				End Site
				{
					OFFSET 0.000000 -8.394100 0.000000
				}
			}
		}
	}
	JOINT RightHip
	{
		OFFSET -1.987999 -0.073502 -2.713001
		CHANNELS 6 Xposition Yposition Zposition Zrotation Xrotation Yrotation
		JOINT RightKnee
		{
			OFFSET 0.000000 -0.000004 -19.547802
			CHANNELS 6 Xposition Yposition Zposition Zrotation Xrotation Yrotation
			JOINT RightAnkle
			{
				OFFSET 0.000000 0.000000 -14.881199
				CHANNELS 6 Xposition Yposition Zposition Zrotation Xrotation Yrotation
				End Site
				{
					OFFSET 0.000000 -7.922699 0.000000
				}
			}
		}
	}
}
MOTION
Frames: 10
Frame Time: 0.041667
61.598198 -34.818493 43.198898 -9.917195 10.523708 -4.186592 -0.780001 1.005805 5.403090 11.505411 -13.711083 3.728480 0.000009 0.000000 4.236792 -12.200000 -2.368129 -1.508696 0.000003 0.000000 9.874403 58.048726 9.741457 -1.694303 0.000002 0.000006 2.173894 5.946729 -0.103908 4.053447 2.681604 -0.377602 5.432506 21.918676 -18.889805 -18.092608 5.161501 -0.000009 0.000018 77.225445 -137.637628 14.358215 0.000000 -0.000008 -10.869106 30.785541 -15.227024 18.186460 0.000016 -0.000001 -13.344793 1.771288 -14.854056 -10.257783 -2.381900 -1.419601 6.136592 -2.094260 -13.696318 42.126810 -4.550500 -0.000004 0.000014 -92.723431 -138.961483 -16.426400 0.000003 -0.000009 -11.106507 -23.110365 -23.033394 -10.960617 0.000002 -0.000008 -12.874308 -38.937860 4.950347 -57.211512 2.431891 0.469604 -2.489402 11.784163 -20.163774 8.693554 0.000000 -0.000010 -18.200203 -20.783161 33.939046 15.996335 0.000003 0.000000 -16.279896 22.128175 23.935223 -8.973333 -1.988003 -0.073493 -2.713005 -76.719390 -45.844493 -55.217722 -0.000011 -0.000000 -19.547798 -22.967153 137.201958 24.383562 -0.000008 0.000009 -14.881195 -8.489593 61.621871 -0.185546
61.583900 -34.816795 43.282406 -10.035651 10.514199 -4.037972 -0.779999 1.005799 5.403099 11.572571 -13.723043 3.761763 -0.000003 -0.000004 4.236795 -12.391885 -2.362296 -1.556634 0.000003 0.000004 9.874398 58.195876 9.493866 -1.678917 0.000003 -0.000003 2.173901 5.836633 -0.085738 4.035223 2.681597 -0.377598 5.432496 21.977990 -19.172426 -18.168868 5.161499 -0.000002 -0.000005 77.900766 -137.910248 14.719397 -0.000005 0.000006 -10.869106 30.678355 -15.147432 17.874445 0.000001 0.000008 -13.344801 1.009367 -14.996975 -10.179125 -2.381906 -1.419600 6.136591 -2.256266 -13.773620 41.950397 -4.550499 -0.000001 0.000001 -92.475803 -138.878633 -16.320163 -0.000004 -0.000004 -11.106504 -24.911809 -23.439606 -11.697624 0.000000 0.000002 -12.874282 -34.724374 4.998818 -56.186348 2.431898 0.469610 -2.489397 11.291567 -19.864043 8.363302 -0.000006 -0.000012 -18.200207 -20.057713 33.233156 15.600384 -0.000002 0.000000 -16.279900 22.040529 24.165727 -9.082109 -1.988001 -0.073491 -2.713005 -76.480067 -45.826160 -55.845836 -0.000014 -0.000002 -19.547794 -22.717458 137.181467 24.980901 -0.000003 -0.000006 -14.881193 -7.883539 61.485725 -1.553866
61.566204 -34.817398 43.368698 -10.112879 10.451185 -3.756683 -0.779995 1.005800 5.403090 11.582367 -13.825113 3.541506 0.000014 0.000010 4.236800 -12.416665 -2.317175 -1.545054 0.000004 -0.000001 9.874401 57.983224 9.498395 -1.572001 -0.000000 0.000001 2.173902 6.800683 -0.104679 3.057630 2.681602 -0.377604 5.432502 22.061485 -19.195471 -18.559176 5.161503 0.000009 0.000004 75.217165 -137.428939 12.877722 0.000004 0.000010 -10.869099 29.847322 -14.393179 17.875537 -0.000001 0.000011 -13.344795 -1.383269 -15.246562 -10.437023 -2.381901 -1.419603 6.136598 -2.249526 -13.861263 42.179789 -4.550504 -0.000005 0.000013 -92.726908 -138.812844 -16.496736 0.000000 -0.000006 -11.106494 -27.413625 -23.306962 -12.683794 0.000004 -0.000005 -12.874292 -29.628240 5.055546 -55.360309 2.431902 0.469604 -2.489398 10.764909 -19.432805 7.771911 0.000001 -0.000007 -18.200205 -20.063754 32.219297 15.647082 -0.000003 -0.000001 -16.279896 22.302192 24.387812 -9.028619 -1.987996 -0.073494 -2.713002 -75.927648 -45.829979 -56.183514 -0.000007 -0.000002 -19.547798 -22.290693 136.835969 25.198380 -0.000014 0.000010 -14.881198 -7.230214 61.438945 -2.536404
61.550495 -34.813995 43.443401 -10.083379 10.403641 -3.480918 -0.780001 1.005797 5.403098 11.489317 -13.930158 3.253736 -0.000000 0.000003 4.236792 -12.479180 -2.312520 -1.543857 -0.000001 -0.000003 9.874400 57.715747 9.604985 -1.408998 0.000004 0.000002 2.173892 7.864113 -0.097307 1.946388 2.681602 -0.377594 5.432496 22.228284 -19.290288 -18.993426 5.161501 0.000005 -0.000001 72.765741 -136.912494 11.265752 0.000008 -0.000008 -10.869105 28.802115 -13.771371 17.522724 0.000006 -0.000004 -13.344805 -3.344598 -15.459133 -10.492872 -2.381901 -1.419600 6.136593 -2.276015 -13.986011 42.429265 -4.550506 0.000002 0.000002 -93.289886 -138.725855 -16.990975 0.000004 -0.000002 -11.106503 -28.265993 -23.377892 -12.966909 0.000002 -0.000009 -12.874290 -27.570154 4.907757 -55.176078 2.431894 0.469600 -2.489403 10.364577 -19.173547 7.279771 0.000005 -0.000010 -18.200207 -18.509808 31.809256 15.120353 -0.000010 -0.000003 -16.279900 21.557583 24.676189 -9.853483 -1.988008 -0.073495 -2.713005 -75.681392 -45.795592 -56.660381 0.000007 0.000002 -19.547802 -21.904265 136.472330 25.401135 -0.000008 0.000003 -14.881192 -6.738284 61.463950 -3.347036
61.534298 -34.806095 43.510303 -9.922019 10.245519 -3.344180 -0.779989 1.005795 5.403090 11.248516 -13.766795 3.250362 -0.000003 0.000006 4.236801 -12.528312 -2.385368 -1.573186 -0.000002 0.000003 9.874405 57.599033 9.358192 -1.412511 0.000002 0.000003 2.173897 8.989000 0.029038 0.759592 2.681597 -0.377602 5.432504 22.127202 -19.258490 -19.014036 5.161503 -0.000001 0.000009 72.224483 -137.504672 10.577791 -0.000001 0.000000 -10.869101 29.019090 -12.917952 17.380895 0.000001 0.000000 -13.344808 -5.289050 -15.768214 -10.584388 -2.381917 -1.419600 6.136598 -2.581049 -14.127703 42.033756 -4.550494 -0.000012 0.000009 -92.874419 -138.964310 -16.766431 0.000002 -0.000002 -11.106495 -28.503177 -23.335936 -13.172086 0.000001 -0.000006 -12.874287 -25.601914 4.748138 -54.948810 2.431906 0.469597 -2.489404 10.160807 -19.048474 7.128728 0.000004 -0.000011 -18.200203 -14.382780 32.403480 13.525776 -0.000009 -0.000005 -16.279896 19.223081 25.091806 -12.146188 -1.987992 -0.073503 -2.713003 -75.524817 -45.814423 -56.973360 -0.000005 -0.000004 -19.547802 -21.401853 135.980173 25.529951 0.000007 0.000000 -14.881197 -6.319671 61.476320 -3.904867
61.524399 -34.797497 43.578804 -9.849463 10.130704 -3.148588 -0.779994 1.005804 5.403095 11.110463 -13.750839 3.111027 0.000001 0.000001 4.236799 -12.470684 -2.368303 -1.564742 0.000007 0.000010 9.874396 57.227945 9.350917 -1.282251 0.000005 -0.000004 2.173888 9.741170 0.041267 0.047706 2.681594 -0.377596 5.432501 22.121992 -19.322732 -19.447977 5.161499 0.000002 0.000009 70.239063 -137.165894 9.187561 -0.000007 0.000000 -10.869102 27.820808 -12.563954 17.120031 0.000001 0.000005 -13.344807 -6.590099 -15.932089 -10.745990 -2.381903 -1.419594 6.136591 -2.710488 -14.327821 42.080628 -4.550502 -0.000007 0.000001 -93.287632 -139.101474 -17.123532 0.000003 -0.000002 -11.106498 -29.111458 -23.218350 -13.316988 0.000003 -0.000005 -12.874306 -23.587117 4.592066 -54.758576 2.431897 0.469597 -2.489399 10.114770 -18.898051 6.899394 -0.000001 -0.000006 -18.200207 -11.394167 32.628176 12.373472 0.000001 -0.000004 -16.279900 17.103495 25.309042 -12.808112 -1.987996 -0.073497 -2.712999 -75.011535 -45.859406 -56.990859 -0.000005 0.000001 -19.547791 -20.739953 135.032744 25.376465 -0.000002 0.000000 -14.881197 -6.117213 61.594414 -3.745206
61.505001 -34.785595 43.639301 -9.684027 10.020451 -2.766300 -0.779991 1.005798 5.403093 10.847918 -13.857080 2.691068 -0.000001 0.000003 4.236795 -12.371680 -2.318888 -1.543752 0.000011 0.000001 9.874402 56.844861 9.524543 -1.157463 0.000008 0.000001 2.173904 10.437928 -0.087977 -0.722619 2.681601 -0.377600 5.432505 22.290748 -19.427213 -19.921587 5.161497 0.000004 0.000013 68.546815 -136.522750 8.334688 -0.000002 -0.000001 -10.869109 26.737117 -12.563755 16.743840 0.000008 0.000015 -13.344794 -7.634628 -16.136732 -10.869764 -2.381896 -1.419602 6.136591 -2.681696 -14.257339 42.440948 -4.550497 -0.000008 0.000010 -93.425247 -138.903221 -17.034096 0.000009 -0.000004 -11.106505 -28.619859 -23.244816 -13.219494 -0.000003 0.000005 -12.874294 -22.297888 4.474243 -54.617813 2.431911 0.469601 -2.489393 10.102902 -18.877524 6.360589 -0.000001 -0.000004 -18.200203 -7.593214 32.937542 11.120360 -0.000002 -0.000001 -16.279896 14.947650 25.943215 -15.454193 -1.987991 -0.073494 -2.713002 -74.802640 -45.595054 -57.135031 0.000003 -0.000005 -19.547796 -20.652656 134.228394 25.898546 -0.000003 0.000004 -14.881202 -6.148132 61.651255 -3.785917
61.493301 -34.770397 43.697899 -9.506347 9.944241 -2.623951 -0.779997 1.005805 5.403097 10.609989 -13.821511 2.639768 0.000003 -0.000004 4.236813 -12.433815 -2.378293 -1.574087 -0.000004 0.000006 9.874401 56.796056 9.370987 -1.172538 -0.000002 0.000004 2.173882 9.433609 -0.071162 0.311780 2.681593 -0.377600 5.432509 22.296372 -19.528827 -19.866187 5.161486 -0.000008 0.000007 70.021330 -136.763091 9.428815 -0.000009 0.000000 -10.869109 26.379744 -13.107536 16.406452 0.000008 0.000003 -13.344793 -7.256106 -16.163158 -10.941465 -2.381908 -1.419598 6.136593 -2.953315 -14.360565 42.058573 -4.550508 -0.000005 -0.000003 -93.208586 -139.124629 -16.978146 0.000000 -0.000002 -11.106510 -27.695992 -23.706897 -12.890680 -0.000002 -0.000003 -12.874278 -21.660277 4.254270 -54.492871 2.431907 0.469606 -2.489399 10.167497 -18.854437 6.027545 0.000001 -0.000017 -18.200197 -4.448190 33.115660 10.194091 0.000002 -0.000003 -16.279896 12.812751 26.361631 -16.745023 -1.988001 -0.073498 -2.713001 -74.655791 -45.554292 -57.247593 0.000004 -0.000009 -19.547798 -21.126602 133.555128 27.009932 -0.000004 0.000004 -14.881196 -6.118808 61.476299 -4.165007
61.482601 -34.755196 43.755501 -9.365047 9.789503 -2.434426 -0.780005 1.005799 5.403088 10.384504 -13.700912 2.588453 0.000003 -0.000004 4.236800 -12.389066 -2.399471 -1.592437 -0.000004 0.000007 9.874397 56.642359 9.179334 -1.207352 0.000002 -0.000002 2.173893 8.295246 -0.094195 1.291490 2.681599 -0.377592 5.432499 22.141119 -19.558827 -19.955569 5.161505 0.000005 0.000008 70.290877 -137.042664 9.540327 0.000010 0.000004 -10.869104 26.251632 -13.061850 16.194793 0.000006 -0.000001 -13.344795 -7.890455 -16.197918 -10.972523 -2.381904 -1.419587 6.136591 -3.226663 -14.388253 41.654667 -4.550504 -0.000009 0.000012 -93.060795 -139.460196 -16.834953 -0.000002 -0.000010 -11.106506 -27.964902 -23.697205 -12.979909 -0.000001 0.000001 -12.874296 -19.812074 4.158285 -54.142889 2.431897 0.469604 -2.489400 10.281717 -18.749013 5.598542 0.000000 -0.000001 -18.200201 -1.818153 33.249060 9.556133 0.000005 -0.000006 -16.279903 11.116270 26.877119 -17.989137 -1.988007 -0.073498 -2.713003 -74.369333 -45.468928 -57.174038 -0.000004 0.000001 -19.547800 -21.892414 132.817864 28.287655 -0.000004 0.000003 -14.881191 -6.879131 61.337257 -3.845596
61.476894 -34.735592 43.808605 -9.187201 9.831549 -2.245825 -0.780003 1.005795 5.403088 10.149811 -13.798199 2.484112 0.000012 -0.000003 4.236797 -12.331790 -2.434168 -1.597852 0.000008 -0.000001 9.874409 56.543110 9.079037 -1.247089 0.000001 0.000003 2.173887 6.947005 -0.217717 2.437846 2.681607 -0.377604 5.432510 21.914327 -19.323826 -19.906393 5.161510 0.000006 -0.000004 70.274990 -137.237393 9.359518 -0.000006 -0.000004 -10.869114 26.194803 -13.277459 16.069658 0.000010 0.000003 -13.344793 -8.769796 -16.071894 -11.070672 -2.381889 -1.419605 6.136599 -3.481033 -14.524215 41.430336 -4.550499 -0.000001 0.000012 -92.686944 -139.634147 -16.591773 0.000004 -0.000004 -11.106491 -28.257486 -23.614291 -13.286326 0.000001 -0.000001 -12.874295 -17.552857 4.002573 -53.956049 2.431897 0.469598 -2.489405 10.271898 -18.715507 5.132806 0.000003 -0.000010 -18.200197 -0.431355 33.069536 9.471800 -0.000002 -0.000004 -16.279903 9.961308 27.188056 -18.483767 -1.988007 -0.073497 -2.713009 -74.337095 -45.413702 -57.318995 -0.000006 -0.000002 -19.547800 -22.482225 131.822815 29.440823 -0.000000 -0.000005 -14.881199 -5.267555 59.817390 -10.870488
